<?xml version="1.0" standalone="no"?>
<!DOCTYPE svg PUBLIC "-//W3C//DTD SVG 20010904//EN"
 "http://www.w3.org/TR/2001/REC-SVG-20010904/DTD/svg10.dtd">
<svg version="1.0" xmlns="http://www.w3.org/2000/svg"
 width="286.000000pt" height="315.000000pt" viewBox="0 0 286.000000 315.000000"
 preserveAspectRatio="xMidYMid meet">

<g transform="translate(0.000000,315.000000) scale(0.100000,-0.100000)"
fill="#000000" stroke="none">
<path d="M253 2521 c-23 -11 -52 -35 -67 -57 l-26 -39 0 -301 0 -301 29 -40
c43 -60 86 -73 237 -73 l125 0 -3 -57 c-3 -47 -6 -57 -23 -59 -60 -8 -84 -16
-95 -29 -16 -19 -1 -19 24 0 11 8 36 15 55 15 27 0 32 -3 21 -10 -10 -6 -11
-10 -2 -10 7 0 12 -13 12 -33 0 -20 12 -52 30 -80 31 -49 32 -58 6 -31 -9 8
-16 11 -16 5 0 -13 20 -25 45 -27 11 -1 40 -10 64 -19 35 -12 72 -15 173 -13
81 2 127 -1 127 -7 -3 -25 2 -55 9 -55 4 0 7 17 7 37 l0 38 72 6 c61 4 79 10
110 35 48 38 72 105 73 197 l0 67 123 0 c68 0 126 -3 129 -6 10 -9 152 -11
187 -1 18 5 48 23 66 40 55 56 59 77 51 292 -7 202 -14 244 -50 283 -43 49
-61 52 -287 52 -208 0 -213 -1 -254 -25 -56 -33 -78 -79 -83 -178 l-4 -78 -67
3 -66 3 -5 186 c-5 200 -4 196 -64 251 -34 32 -88 38 -356 38 -238 0 -269 -2
-307 -19z"/>
<path d="M2268 2033 c7 -3 16 -2 19 1 4 3 -2 6 -13 5 -11 0 -14 -3 -6 -6z"/>
<path d="M471 1561 c-10 -7 -7 -9 12 -8 15 1 27 5 27 10 0 10 -22 9 -39 -2z"/>
<path d="M512 1516 c-8 -21 -11 -40 -8 -43 3 -4 6 1 6 10 0 8 5 17 11 19 6 2
9 14 7 28 -3 21 -5 19 -16 -14z"/>
<path d="M381 1512 c-6 -12 -11 -27 -11 -34 1 -7 8 0 16 15 9 16 13 31 11 34
-3 2 -10 -4 -16 -15z"/>
<path d="M1500 1375 c0 -105 15 -144 71 -185 l43 -31 145 3 146 3 3 79 c3 88
-8 127 -48 168 -38 37 -88 48 -232 48 l-128 0 0 -85z"/>
<path d="M382 1425 c0 -16 2 -22 5 -12 2 9 2 23 0 30 -3 6 -5 -1 -5 -18z"/>
<path d="M364 1335 c0 -60 1 -84 3 -52 2 32 2 81 0 110 -2 29 -3 3 -3 -58z"/>
<path d="M384 1270 c0 -69 1 -97 3 -62 2 34 2 90 0 125 -2 34 -3 6 -3 -63z"/>
<path d="M668 1353 c6 -2 18 -2 25 0 6 3 1 5 -13 5 -14 0 -19 -2 -12 -5z"/>
<path d="M698 1313 c7 -3 16 -2 19 1 4 3 -2 6 -13 5 -11 0 -14 -3 -6 -6z"/>
<path d="M818 1293 c12 -2 32 -2 45 0 12 2 2 4 -23 4 -25 0 -35 -2 -22 -4z"/>
<path d="M960 1259 c0 -5 5 -7 10 -4 6 3 10 8 10 11 0 2 -4 4 -10 4 -5 0 -10
-5 -10 -11z"/>
<path d="M751 1224 l-35 -31 -4 -117 -5 -116 59 0 c155 0 224 64 224 207 0 40
-1 73 -2 74 -2 1 -48 4 -103 8 l-100 6 -34 -31z"/>
<path d="M653 1070 c0 -47 2 -66 4 -42 2 23 2 61 0 85 -2 23 -4 4 -4 -43z"/>
<path d="M361 1114 c0 -11 3 -14 6 -6 3 7 2 16 -1 19 -3 4 -6 -2 -5 -13z"/>
<path d="M386 1100 c4 -26 3 -31 -5 -20 -9 13 -11 13 -11 -1 0 -24 25 -54 34
-41 4 7 2 12 -4 12 -6 0 -8 10 -4 24 3 14 1 33 -5 43 -8 14 -10 11 -5 -17z"/>
<path d="M420 1005 c7 -9 15 -13 17 -11 7 7 -7 26 -19 26 -6 0 -6 -6 2 -15z"/>
<path d="M455 990 c-3 -5 -1 -10 4 -10 6 0 11 5 11 10 0 6 -2 10 -4 10 -3 0
-8 -4 -11 -10z"/>
<path d="M490 981 c8 -6 28 -11 44 -11 39 0 31 6 -19 14 -29 5 -36 4 -25 -3z"/>
<path d="M675 980 c3 -5 8 -10 11 -10 2 0 4 5 4 10 0 6 -5 10 -11 10 -5 0 -7
-4 -4 -10z"/>
</g>
</svg>
